<?xml version="1.0" encoding="UTF-8"?>
<svg id="_レイヤー_5" data-name="レイヤー 5" xmlns="http://www.w3.org/2000/svg" xmlns:xlink="http://www.w3.org/1999/xlink" viewBox="0 0 1272.11 1215.72">
  <defs>
    <style>
      .cls-1 {
        fill: url(#_名称未設定グラデーション_4623);
      }

      .cls-2 {
        fill: url(#_名称未設定グラデーション_4628);
      }

      .cls-3 {
        fill: url(#_名称未設定グラデーション_4620);
      }

      .cls-4 {
        fill: url(#_名称未設定グラデーション_4621);
      }

      .cls-5 {
        fill: url(#_名称未設定グラデーション_4622);
      }

      .cls-6 {
        fill: url(#_名称未設定グラデーション_4618);
      }

      .cls-7 {
        fill: url(#_名称未設定グラデーション_4619);
      }

      .cls-8 {
        fill: #5bb5a5;
      }
    </style>
    <linearGradient id="_名称未設定グラデーション_4628" data-name="名称未設定グラデーション 4628" x1="655.77" y1="1027.24" x2="655.77" y2="137.64" gradientUnits="userSpaceOnUse">
      <stop offset=".16" stop-color="#fff"/>
      <stop offset="1" stop-color="#cdebe5"/>
    </linearGradient>
    <linearGradient id="_名称未設定グラデーション_4623" data-name="名称未設定グラデーション 4623" x1="165.8" y1="1010.35" x2="1145.75" y2="1010.35" gradientUnits="userSpaceOnUse">
      <stop offset=".13" stop-color="#f5faff"/>
      <stop offset="1" stop-color="#badbd6"/>
    </linearGradient>
    <linearGradient id="_名称未設定グラデーション_4622" data-name="名称未設定グラデーション 4622" x1="165.79" y1="957.78" x2="1145.94" y2="957.78" gradientUnits="userSpaceOnUse">
      <stop offset=".13" stop-color="#f5faff"/>
      <stop offset=".49" stop-color="#c4e0dc"/>
      <stop offset="1" stop-color="#badbd6"/>
    </linearGradient>
    <radialGradient id="_名称未設定グラデーション_4621" data-name="名称未設定グラデーション 4621" cx="442.57" cy="669.03" fx="392.14" fy="479.76" r="294.94" gradientUnits="userSpaceOnUse">
      <stop offset=".42" stop-color="#d9cbb1"/>
      <stop offset=".56" stop-color="#d2c2a3"/>
      <stop offset=".82" stop-color="#c1aa80"/>
      <stop offset="1" stop-color="#b59865"/>
    </radialGradient>
    <radialGradient id="_名称未設定グラデーション_4620" data-name="名称未設定グラデーション 4620" cx="547.53" cy="742.02" fx="487.36" fy="634.85" r="196.51" gradientUnits="userSpaceOnUse">
      <stop offset=".06" stop-color="#e5dbc9"/>
      <stop offset=".37" stop-color="#e0d4be"/>
      <stop offset=".54" stop-color="#d5c5a8"/>
      <stop offset=".91" stop-color="#b99e70"/>
      <stop offset=".93" stop-color="#b89c6c"/>
    </radialGradient>
    <radialGradient id="_名称未設定グラデーション_4619" data-name="名称未設定グラデーション 4619" cx="996.78" cy="483.07" fx="945.83" fy="476.4" r="757.36" gradientUnits="userSpaceOnUse">
      <stop offset=".36" stop-color="#e9e0d1"/>
      <stop offset=".4" stop-color="#e7ddcd"/>
      <stop offset=".62" stop-color="#e0d4be"/>
      <stop offset=".67" stop-color="#dcceb6"/>
      <stop offset=".75" stop-color="#d1c0a1"/>
      <stop offset=".84" stop-color="#c1a87e"/>
      <stop offset=".89" stop-color="#b89c6c"/>
    </radialGradient>
    <radialGradient id="_名称未設定グラデーション_4618" data-name="名称未設定グラデーション 4618" cx="887.14" cy="622.26" fx="1307.42" fy="730.15" r="433.91" gradientUnits="userSpaceOnUse">
      <stop offset=".21" stop-color="#e5dbc9"/>
      <stop offset=".59" stop-color="#e0d4be"/>
      <stop offset=".7" stop-color="#d7c8ad"/>
      <stop offset=".9" stop-color="#c2aa81"/>
      <stop offset=".99" stop-color="#b89c6c"/>
    </radialGradient>
  </defs>
  <circle class="cls-2" cx="655.77" cy="593.22" r="473.4"/>
  <g>
    <path class="cls-1" d="M837.2,1059.7c-195.62,1.8-259.8-101.03-438.1-101-166.42.04-232.76-68.31-233.3-68.87,115.48,146.78,294.7,241.03,495.95,241.03s368.31-87.99,484-226.32c-5.9,6.59-139.39,153.59-308.55,155.15Z"/>
    <path class="cls-5" d="M852.48,977.44c-165.05-8.15-201.73-74.37-377.99-110.03-176.21-35.65-308.63,22.38-308.71,22.41,0,0,0,0,.01.01.54.56,66.88,68.9,233.3,68.87,178.3-.04,242.48,102.8,438.1,101,169.16-1.56,302.65-148.55,308.55-155.15.07-.08.13-.16.2-.24-1.31.83-129.27,81.24-293.47,73.13Z"/>
    <path class="cls-4" d="M456.29,634.6c-65.03,35.25-73.87,95.29-108.48,152.78-12.94,21.49-35.6,26.77-53.11,37.8-14.68,9.25-31.12,24.05-41.06,44.4,48.76-15.15,107.98-17.14,173.74-8.38,1.54.21,3.09.42,4.64.64,2.47-3.95,4.6-8.46,6.33-13.64,43.08-87.58,68.37-109.82,144.13-167.85.74-.74,1.45-1.49,2.15-2.25,2.98-4.95,6.18-9.92,9.63-14.94.01-.02.02-.04.04-.06,4.7-12.32,9.33-26.17,10.94-39.98.32-6.22.27-12.56,0-18.96-.37-2.71-.91-5.39-1.66-8.02-14.58-51.38-3.59-117.07,25.44-119.44.81-.64,1.62-1.29,2.47-1.92-103.16-38.12-119.23,106.13-175.2,159.81Z"/>
    <path class="cls-3" d="M582.48,680.36c-75.76,58.03-101.05,80.27-144.13,167.85-1.73,5.18-3.86,9.69-6.33,13.64,11.47,1.62,23.16,3.6,35.05,6,27.83,5.63,52.27,12.01,74.33,18.79,4.37-76.41,1.84-139.72,43.24-208.53-.7.76-1.41,1.51-2.15,2.25Z"/>
    <path class="cls-7" d="M584.63,678.1c-41.4,68.81-38.87,132.12-43.24,208.53,2.62.81,5.22,1.62,7.77,2.43,115.87,37.06,165.86,84.91,306.3,91.84,31.88,1.57,62.39-.11,90.94-3.89-14.95-52.21-65.34-84.45-83.36-134.98-8.91-64.94-25.42-133.69-42.97-200.28-17.71-37.57-42.44-71.07-76.65-94.04-24.02-11.64-55.42-14.98-72.07-39.44-16.62-23.57-30.89-32.5-42.35-31.56-29.03,2.37-40.02,68.06-25.44,119.44.75,2.63,1.29,5.31,1.66,8.02h0c.17,5.36-.16,8.66,0,18.96,0,0,0,0,0,0-2.15,13.82-6.23,27.66-10.94,39.98-.01.02-.03.04-.04.06-3.45,5.01-6.65,9.99-9.63,14.94"/>
    <path class="cls-6" d="M946.41,977.02c56.09-7.42,104.55-22.91,140.72-37.6.45-1.08.56-2.06.23-2.92-43.39-73.32-27.16-163.33-59.8-239.92-14.02-26.84-47.74-40.72-65.84-62.72-27.33-50.17-21-15.96-14.88,22.59,24.61,44.37,37.71,78.65,30.94,130.67-2.48,5.06-4.17,1.62-6.84-.34-3.36-2.46-8.75-16.29-13.95-25.22-9.5-35.28-34.8-61.17-47.73-94.27-16.67-34.16-12.65-73.19-30.57-107.41-12.88-42.43-133.47-97.23-85.28-17.14,8.58,31.92,17.76,65.19,26.67,99.01,17.54,66.59,34.05,135.34,42.97,200.28,18.02,50.53,68.41,82.78,83.36,134.98Z"/>
  </g>
  <path class="cls-8" d="M1013.19,548.06c-53.97-40.79-12.64-3.46-11.46-49.12,13.91-26.2-15.25-33.66-22.02-54.54,4.78-54.77-55.8-46.6-91.55-58.48-13.98-22.04,44.15-2.95,52.28-10.34,18.81-12.24-13.13-30.44-24.2-35.22,26.08-15.77-9.94-28.94-25.56-33.25-21.86-19.62-42.91,2.14-59.99,16.91-12.67,5.4-9.5,20.23-12.08,26.68-29.79-32.59-17.62-65.95-79.6-70.45-25.08-6.69-25.29-25.23-43.06-33.26-37.3-14.83-61.7,20.6-96.63,29.32-64.97,51.79,68.16,38.08,38.22,80.48-12.57-2.24-34.48-11.98-41.43-24.18-31.23-7.54-63.27-24.1-95.55-10.57-11.2-26.29-41.78-37.2-68.13-23.77-18.97,12.84-55.38,16.22-54.26,40.8-28.42,25.02-46.71,42.52,9.56,42.83,52.42,4.83-11.99,11.64-15.92,28.92-.28,16.75,33.08,10.92,43.15,12.39,11.38,9.41,29.46,1.12,38.23,11.57,14.01,18.97,10.02,41.79-9.07,54.96-8.16,10.45-10.68,25.92-21.76,8.85-2.39-3.71-3.26-6.96-2.85-11.44,59.79-55.08-85.37-64.05-81.27-14.38,8.57,15.56,41.49,9.99,56.18,14.96,39.75,37.37,19.68,63.22-7.43,100.1-22.85,43.65-19.23,115-25.48,163.35-5.22,48.34,27.72-31,33.48-44.77,30.4-50.92,99.94-68.63,119.63-130.66,16.02-79.72,99.08-121.6,155.88-55.59,19.08,36.55,74.3,26.33,97.8,63.07,19.23,18.42,34.2,45.63,49.65,63.68,20.38-47.85-61.57-128.41-7.77-128.05,67.87,30.74,64.72,66.4,84.07,129.35.98,24.68,24.6,52.7,37.91,76.49,14.43,14.61,44.35,79.97,44.35,79.97,0,0,4.79-26.24,10.78-35.05,31.13-45.73-31.19-119.73-37.88-155.98-1.89-10.26-27.83-23.39-31.73-30.53,17.78-50.95,85.73,9.95,95.52-35.06ZM515.72,444.42c-10.14,11.73-33.9-2.47-40.42-13.93-8.63-15.16,2.88-10.85,13.51-16.85,18.52-27.33,38.62,14.85,26.9,30.78ZM537.05,439.9c-21.26-17.68,23.54-90.09,23.27-20.71-.03,7.92-15.05,27.54-23.27,20.71ZM677.95,390.72c-17.96,9.28-27.2-79.06,1.38-46.55,6.21,7.07,5.97,42.75-1.38,46.55ZM694.86,351.92c-14.09-10.06,12.57-35.74,28.44-28.44,14.19,6.53-22.33,32.8-28.44,28.44ZM785.39,445.06c-13.45,22.64-43.67-29.77,7.76-23.28,8.18,1.03-3.92,16.81-7.76,23.28ZM798.32,445.06c8.24-16.43,15.34-36.42,31.05-20.69,36.17,36.22-47.42,61.49-31.05,20.69ZM870.75,452.82l-12.93,5.17c-29.47,10.65,1.6-25,12.93-20.69,13.88,5.27,5.88,12.33,0,15.52ZM897.65,556.37c-4.48-14.14,17.33-15.37,19.68-13,5.44,5.5-11.57,38.57-19.68,13Z"/>
</svg>