<?xml version="1.0" encoding="UTF-8"?>
<svg id="_レイヤー_1" xmlns="http://www.w3.org/2000/svg" xmlns:xlink="http://www.w3.org/1999/xlink" version="1.1" viewBox="0 0 1024 1024">
  <!-- Generator: Adobe Illustrator 29.8.2, SVG Export Plug-In . SVG Version: 2.1.1 Build 3)  -->
  <defs>
    <style>
      .st0 {
        fill: #f3e3c2;
      }

      .st1 {
        fill: #fff;
      }

      .st2 {
        fill: #947f61;
      }

      .st3 {
        fill: #fcfcfc;
      }

      .st4 {
        fill: #cab189;
      }

      .st5 {
        display: none;
      }

      .st6 {
        fill: none;
        stroke: #274030;
        stroke-linecap: round;
        stroke-linejoin: round;
        stroke-width: 25px;
      }

      .st7 {
        fill: url(#_名称未設定グラデーション_18);
      }
    </style>
    <linearGradient id="_名称未設定グラデーション_18" data-name="名称未設定グラデーション 18" x1="590.32" y1="510.06" x2="642.88" y2="631.24" gradientUnits="userSpaceOnUse">
      <stop offset="0" stop-color="#cab189"/>
      <stop offset="1" stop-color="#cab189"/>
    </linearGradient>
  </defs>
  <rect class="st1" width="1024" height="1024"/>
  <g class="st5">
    <path class="st6" d="M568.89,379.4c11.26,7.1,19.78,16.9,26.97,27.86,11.05,16.84,24.82,30.73,41.71,41.85,12.07,7.94,18.24,20.23,20.49,34.27,2.78,17.31,6.75,34.43,15,49.83,13.27,24.78,19.87,51.36,24.34,78.7,6,36.64,17.62,71.22,36.73,103.23,2.23,3.75,4.98,1.74,7.49,2.37"/>
    <path class="st6" d="M214.4,689.67c4.55.48,8.46,2.51,12.31,4.86,7.82,4.78,14.92,4.97,20.25-1.75,13.29-16.72,29.51-29.99,45.87-43.43,19.22-15.8,25.21-37.97,25.54-62.03.21-14.52,2.85-28.72,9.18-41.66,9.54-19.52,12.98-40.18,14.66-61.48,1.08-13.78,3.18-27.07,11.03-39.51,7.97-12.65,14.56-26.42,22.82-38.83,8.06-12.12,19.25-21.71,33.09-28.31,21.43-10.23,43.14-19.27,66.41-24.37,9.33-2.05,18.46-3.06,27.88-.05,9.52,3.04,15.8-4.06,21.9-9.13,7.44-6.17,15.21-11.07,24.75-11.95,10.95-1,21.93-1.68,32.78,2.22,17.38,6.27,35.03,12.91,48.76,25.02,15.76,13.9,36.75,24.46,41.03,47.97,2.25,12.37,8.35,20.75,16.72,30.06,8.89,9.87,14.88,23.31,18.89,36.97,4.66,15.88,6.39,32.91,16.96,46.75,7.36,9.62,14.37,19.52,21.38,29.41,12.6,17.72,19.39,36.88,18.97,58.99-.46,25.28,1.19,50.44,6.94,75.37,6.48,28.08,19.58,51.82,42.99,68.46,17.36,12.32,32.5,27.22,49.76,39.55,2.89,2.06,6.02,3.8,8.95,5.79,6.12,4.16,12.2,4.71,17.98-.14,2.85-2.39,5.83-2.46,9.07-2.37,1.36.03,2.77.21,4.09-.02,21.24-3.7,42.57.22,63.87-.6,21.26-.82,42.56-.17,63.85-.17s42.57-.09,63.85.09c3.8.03,7.61.95,11.46.74"/>
    <path class="st6" d="M534.91,393.32c1.34,15.3,2.78,30.56-4.47,45.05-4.11,8.2-10.5,14.28-18.12,18.7-18.58,10.76-26.98,28.41-32.54,47.64-8.06,27.91-25.92,47.11-50.91,60.53-9.75,5.22-20.02,9.56-27.07,18.8-5.98,7.84-7.36,17.41-10.5,26.28-10.31,29.15-27.81,53.47-50.15,74.34-9.04,8.44-17.39,17.55-26.67,25.75-2.77,2.46-4.9,4.04-8.39,3.85"/>
    <path class="st6" d="M575.44,488.28c-8.95,23.79-18.1,47.57-16.31,73.68.96,13.9.14,27.93,2.41,41.75,1.13,6.93,3.75,12.58,9.66,17.38,12.5,10.12,24.42,21.14,30.37,36.68,9.32,24.39,19.06,48.61,28.46,72.94,3.11,8.06,2.23,17.51-2.35,25.18-7.08,11.82-4.47,23.22.33,34.41,3.33,7.75,7.05,15.09,4.74,23.8"/>
    <path class="st6" d="M499.3,561.97c.17,5.96-3.4,10.33-6.6,14.71-11.4,15.66-16.4,33.27-18.24,52.4-1,10.45-2.82,20.9-5.91,31.25-3.83,12.86-10.74,23.01-22.6,27.41-26.49,9.81-38.19,31.5-48.21,55.15-.28.65-1.07,1.1-1.6,1.65"/>
    <path class="st6" d="M60.49,817.8c8.37,1.32,16.93.74,24.68,5.96,8.3,5.59,18.51,2.75,27.72,3.18,49.64,2.37,99.33.89,148.98.91,12.55,0,25.09-1,37.66.14,2.82.26,5.59.22,8.2,1.67,7.49,4.14,14.54,2.22,22.19-.53,6.63-2.37,13.9-2.78,21.24-.45,6.05,1.92,12.51,1.98,18.79-.58,13.7-5.6,27.22-4.31,40.05,2.51,8.83,4.69,17.98,6.63,27.89,6.51,21.02-.27,42.06.57,63.03-.98,9.47-.7,16.77,7.1,26.21,5.83"/>
    <path class="st6" d="M884.9,803.46c.81,4.37,4.16,7.48,5.72,11.46,3.15,8.01-.43,14.2-9.01,15.5-1.87.29-3.82.03-5.72.03-51.3,0-102.61-.52-153.91.14-55.39.7-110.79.45-166.18.77-10.38.07-20.66,1.53-27.84,10.55"/>
    <path class="st6" d="M492.75,395.37c-21.59,15.07-44.7,27.64-67.13,41.34-22.07,13.47-31.66,33.74-32.83,58.95-.52,10.95-2.85,21.76-3.18,32.76"/>
    <path class="st6" d="M76.87,818.21c-.31-1.74.91-3.13.95-4.92.03-3.54,3.42-7.42.55-10.52-3.51-3.76-8.37-5.72-13.77-5.88-37.66-1.05-75.33-1.27-112.97-.52-12.05.24-24.03-.91-36.02-.29"/>
    <path class="st6" d="M509.94,691.32c.84,7.53-2.99,14.16-3.99,21.3-1.34,9.49-2.47,18.89-.33,28.69,2.49,11.33-1.99,20.25-11.89,27.19-6.74,4.73-14.01,9.78-16.53,18.61"/>
    <path class="st6" d="M358.48,256.6c11.64,13.7,23.34,27.34,36.82,39.31,2.3,2.05,4.52,4.23,6.55,6.55,5.43,6.26,7.06,13.34,4.12,21.26"/>
    <path class="st6" d="M692.5,760.08c4.37,13.58,11.52,26.02,15.06,40.03,2.42,9.59,3.85,18.97,3.76,28.74"/>
    <path class="st6" d="M763.72,412.14c1.62,4.64,2.97,9.32,6.46,13.18,2.58,2.87,1.39,6.84-.14,9.62-1.12,2.01-4,2.23-7.15,2.1-8.28-.36-15.95-5.84-24.56-2.85-1.03.36-1.96,1.41-3.25.88"/>
    <path class="st6" d="M214.81,679.85c1.17,4.81-1.12,8.28-3.49,12.39-8.2,14.16-16.38,28.15-28.75,39.27-4.62,4.16-9.4,7.03-15.64,7.27"/>
    <path class="st6" d="M627.83,209.94c5.43.53,10.07-1.75,14.75-4.07,9.44-4.69,11.34-3.76,15.69,5.65,1.43,3.08,2.99,8.22,7.97,6.43,4.4-1.58,11.17.67,12.51-7.15.6-3.57,3.95-6.53,3.11-10.67"/>
    <path class="st6" d="M842.32,770.72c7.87-9.2,19.73-11.89,29.6-17.81,6.26-3.75,12.51-.65,15.25,7.22,2.8,8.1,8.49,13.01,15.81,15.25,8.78,2.68,13.58,7.44,13.84,16.62"/>
    <path class="st6" d="M769.47,351.56c6.34,4.69,14.18,3.88,21.3,5.69,10,2.54,15.3,9.68,12.13,17.17-1.27,3.01-2.41,6.15-4,9.02-3.4.55-6.51-1.05-9.76-1.65-8.15-1.48-11.69.72-11.27,9.04.43,8.83-8.77,18.3-17.38,20.47"/>
    <path class="st6" d="M515.68,189.05c15.12,5.74,30.22,11.46,42.62,22.46,3.57,3.16,7.37,6.26,12.24,7.41,5.91,1.41,7.01,5.74,5.62,10.62-2.2,7.8-.24,16.16-3.82,23.86-1.55,3.35,2.2,6.77,2.34,10.55.34,9.28,2.18,19.32.74,27.69-2.25,13.15.82,25.83-.81,38.62"/>
    <path class="st6" d="M359.31,253.32c7.51-7.84,13.51-16.79,18.79-26.23,1-1.79,2.03-2.87,4.12-3.3,10.3-2.06,19.44-6.1,27.16-13.73,5.62-5.55,11.95-3.02,14.66,4.76.88,2.53.6,6.39,3.28,7.22,8.8,2.7,10.24,10.47,13.03,17.36,2.47,6.14,6.43,8.66,13.13,6.6,8.01-2.46,13.39,0,17.39,8.03,4.83,9.71,13.05,17.65,15.33,28.75.91,4.42,4.37,1.68,6.57,2.46"/>
    <path class="st6" d="M712.15,309.81c-16.48,1.36-32.54,6.03-49.12,6.5-3.2.09-4.74,2.18-6.55,4.14-5.59,6.14-8.04,14.01-11.33,21.35-2.34,5.21-5.02,9.95-9.14,13.85"/>
    <path class="st6" d="M690.87,267.24c-10.23,10.5-17.87,23.03-26.86,34.49-2.9,3.71-3.57,8.85-2.6,13.8"/>
    <path class="st6" d="M356.03,257.42c-4.92,4.92-10.85,9.18-14.51,14.88-5.69,8.87-14.27,12.62-23.19,16.16-7.84,3.11-10.33,8.54-8.28,16.47,2.87,11.17,9.5,21.11,10.67,32.72.74,7.34,5.6,10.24,11.58,11.26,4.04.69,7.55,5.84,12.24,1.84"/>
    <path class="st6" d="M579.53,132.97c-1.63,15.28-.36,30.87-4.92,45.84"/>
    <path class="st6" d="M729.35,245.96c-9.88,5.17-10.57,16.93-1.68,23.8,5.93,4.59,12.98,6.34,19.71,8.89,5.36,2.03,6.65-4.54,10.62-5.67"/>
    <path class="st6" d="M744.08,453.08c-4.59-4.59-7.79-9.57-9.28-16.31-1.99-8.92-17.34-14.52-26.71-10.67-6.12,2.53-11.74,6.05-17.2,9.78"/>
    <path class="st6" d="M333.92,380.21c0-2.46-.58-5.09.12-7.34,1.6-5.19,10.16-5.5,16.28-.88,1.99,1.51,3.44,3.64,3.97,5.77,2.82,11.31,10.76,18.3,19.77,24.53"/>
    <path class="st6" d="M369.95,315.95c4.31-1.74,8.46.15,12.22,1.41,7.56,2.53,14.61,6.12,22.96,6.74,3.73.28,5.91,5.76,9.02,8.65,9.42,8.77,17.36,18.56,21.3,31.09"/>
    <path class="st6" d="M514.03,280.34c-.07-3.02.89-6.53-.93-8.92-4.59-6-3.57-12.08-2.54-18.96,2.37-15.78,15.33-21.93,28.87-13.08,9.68,6.32,19.66,12.07,31.09,14.76"/>
    <path class="st6" d="M142.35,737.98c1.72,11.5-5.64,19.73-10.79,28.57-2.6,4.45-7.92,5.64-12.94,5.76-6,.15-10.17,2.47-14.08,7.3-6.93,8.54-12.36,18.85-23.58,23.03-.48.17-1.08.02-1.63.02"/>
    <path class="st6" d="M635.61,234.5c.74,8.54-5.35,14.44-8.85,21.14-2.87,5.5-7.12,10.31-8.71,16.52-.69,2.7-2.46,3.83-4.9,5-11.81,5.69-22.05,14.92-36.06,15.47"/>
    <path class="st6" d="M621.28,220.57c-.38-4.61,5.43-5.6,5.72-9.81.36-3.94-3.18-5.74-5.12-8.01-3.04-3.56-7.67-4.31-11.21-.12-5.16,6.1-10.72,11.7-17.26,16.31-4.9,3.45-10.16,6-16.36,5.74"/>
    <path class="st6" d="M545.96,159.18c10.5,4.83,16.86,15.47,27.79,19.75,1.25.5,2.92,1.8,2.51,3.99-2.23,11.89,3.47,24.53-3.28,36.02"/>
    <path class="st6" d="M355.22,254.97c-7.3-9.44-17.87-10.69-28.65-11.46"/>
    <path class="st6" d="M612.27,162.45c-8.34,2.73-14.71,8.47-21.31,13.89-4,3.28-8.34,6.1-13.89,5.76"/>
    <path class="st6" d="M682.69,242.68c3.09.38,5.57-1.48,8.13-2.58,3.68-1.58,6.89-1.94,9.85.98,1.65,1.63,3.82,2.9,5.72,2.3,7.01-2.25,12.72,1.62,18.87,3.4"/>
    <path class="st6" d="M679.4,214.03c8.92,5.1,19.44,1.51,28.79,5.4,2.96,1.24,6.75-3.44,10.52-4.52,3.33-.95,6.08-3.59,9.81-3.33"/>
    <path class="st6" d="M759.63,352.38c4.86.19,9.38.58,10.05-6.53.29-3.06,4.09-4.97,6.31-7.39,6.2-6.75,5.59-11.4-2.49-14.64-7.06-2.84-15.54-.65-22.07-5.83-.53.83-1.8,1.13-1.68,2.46.02.24-.62.83-.76.77-1.12-.46-1.12-1.05-.02-1.6"/>
    <path class="st6" d="M378.13,223.86c-8.49-5.71-18.17-5.74-27.83-5.72"/>
    <path class="st6" d="M812.02,387.58c-3.73.65-7.12-.95-10.64-1.63"/>
  </g>
  <g id="_生成オブジェクト" data-name="生成オブジェクト">
    <g>
      <path class="st2" d="M912.44,789.26c.09,1.06.21,1.53,1.39,1.39-.57,2.9-3.02,5.41-5.56,6.95-9.37.54-17.84-9.77-22.94-11.12-.85-.23-9.97,2.49-16.68,0-2.16-.8-18.95-15.47-18.77-4.87.03,1.71,10.45,8.98,12.51,10.43-13.06-4.45-20.58-2.79-18.08-20.86,1.68-12.13,22.83-23.6,34.06-20.86,6.14,1.5,14.52,17.14,19.47,22.25,3.36,3.47,13.17-.6,14.6,16.68Z"/>
      <path class="st2" d="M908.27,797.6c-7.99,4.86-7.27,2.02-15.29,1.39-2.39-.19-5.88-4.15-6.26-4.17-.47-.03-3.99,3.12-9.04,2.78-.91-.06-1.87.07-2.78,0-4.27-1.79-6.71-4.16-11.12-5.56-.42-.13-.98.14-1.39,0-2.07-1.45-12.49-8.71-12.51-10.43-.18-10.6,16.61,4.07,18.77,4.87,6.71,2.49,15.83-.23,16.68,0,5.1,1.35,13.57,11.66,22.94,11.12Z"/>
      <path class="st3" d="M892.97,798.99c.17,1.25-1.53,1.51-1.39,2.78-3.8-3.58-17.49,1.55-13.9-4.17,5.05.33,8.57-2.81,9.04-2.78.38.02,3.87,3.98,6.26,4.17Z"/>
      <path class="st0" d="M913.83,790.65c-1.18.14-1.3-.33-1.39-1.39,1.01-.16,1.59.39,1.39,1.39Z"/>
    </g>
    <g>
      <path class="st4" d="M164.4,746.15c1.67.95,4.94-.73,6.95,4.17-1.21.45-5.95,10.36-13.9,8.34-1.89-.92-11.97-2.45-12.51-2.78-12.06-7.37-8.94-17.24,1.39-23.64,5.56.31,4.45,6.63,4.87,6.95,1.75,1.35,9.77,4.98,13.21,6.95Z"/>
      <path class="st0" d="M168.57,733.64c.49.23,6.66,5.76,8.34,6.95l-12.51,5.56c-3.44-1.97-11.46-5.6-13.21-6.95-.42-.32.7-6.64-4.87-6.95,11.06-6.85,10.99-3.79,22.25,1.39Z"/>
      <g>
        <path class="st3" d="M574.57,181.65c-.69-1.37-1.82-3.03-2.78-4.17-1.26-1.49-1.34-3.52-4.17-2.78-.11-.14-3.74-1.34-2.09-2.78,4.68-.21,7.8,1.45,10.43-2.78-.23,4.18-1.18,8.65-1.39,12.51Z"/>
        <path class="st3" d="M517.56,183.04l2.78-2.78c2.08,2.76,7.4,6.32,8.34,10.43-3.51.71-10.51-7.38-11.12-7.65Z"/>
        <path class="st3" d="M573.18,215.02c-.24,2.4.37,3.17-2.78,2.78-.05-.42-.05-.97,0-1.39.22-1.94,1.44-1.48,2.78-1.39Z"/>
        <path class="st3" d="M698.31,215.02c-.23-1.59,1.03-1.18,1.39-1.39.17,1.38-.54,1.16-1.39,1.39Z"/>
        <path class="st3" d="M379.91,404.11v-1.39c2.89.61.38.96,0,1.39Z"/>
        <polygon class="st3" points="596.12 167.75 596.81 168.44 596.12 169.14 596.12 167.75"/>
        <path class="st3" d="M695.53,216.41c-.16-1.34.47-1.18,1.39-1.39.15,1.21-.35,1.27-1.39,1.39Z"/>
        <polygon class="st3" points="589.17 171.92 589.86 172.61 589.17 173.31 589.17 171.92"/>
        <path class="st3" d="M577.35,188.6c.06-1.34-.52-2.82,1.39-2.78-.27,1.08.69,2.84-1.39,2.78Z"/>
        <polygon class="st3" points="585.69 174.7 586.39 173.31 587.08 174 586.39 174.7 585.69 174.7"/>
        <path class="st3" d="M75.41,824.02c-2.81-1.03.03-1.33,0-1.39v1.39Z"/>
        <path class="st3" d="M581.52,176.09c-.27,0-2.43,4.24-2.78-1.39l2.78,1.39Z"/>
        <path class="st3" d="M520.34,228.92c.07-.07-.39-.55,1.39-1.39l-1.39,1.39Z"/>
        <path class="st3" d="M349.32,213.63c.09-.04-.53-.92,1.39-1.39l-1.39,1.39Z"/>
        <path class="st3" d="M694.14,216.41c-1.1,3.58-3,.62-4.17,0,1.38-.04,2.79.07,4.17,0Z"/>
        <g>
          <path class="st0" d="M417.45,208.07c.09,8.68-5.68,15.44-6.95,23.64-1.76,11.32-2.5,29.98-2.78,41.71-.01.46.01.93,0,1.39l-9.04,22.25-41.71-45.88,47.97,63.26c-4.32-1.75-20.51,3.81-21.55,3.48-1.85-.6-2.14-4.08-2.78-4.17-2.04-.29-2.25,1.78-4.17,1.39-1.76-.36,1.71-2.33,0-2.78-5.01-1.33-25.07-6.74-29.89-6.95-5.36-.23-15.03,6.57-9.04,11.12-9.12-4.36-16.42.39-18.77,9.73-9.32-18.15-14.01-8.2-8.34-28.5.08-.28-2.68-2.56-1.39-5.56,5.49-12.76,31.31-17.3,30.59-22.25-.86-5.95-23.16-7.72-25.03-12.51-.67-1.72,4.42-22.7,6.26-24.33,1.35-1.19,13.47-4.6,16.68-6.95,4.41-3.23,7.93-10.54,11.82-12.51l1.39-1.39c6.93-1.7,17.79,5.5,25.72,4.17,3.38-.57,15.27-10.83,16.68-11.12,1.51-.31,8.8,4.18,9.73,4.17,5.13-.07,9.17-1.43,14.6-1.39Z"/>
          <path class="st4" d="M346.54,305.4c14.17,7.97,29.27,11.18,44.49,13.9,3.68.66,8.9-.7,12.51,0,.45.09.96-.11,1.39,0,7.48,1.98,10.56,12.03,13.9,18.08l-11.82,1.39c7.33-6.81-.97-3.92-1.39-4.17-1.43-.87-.01-3.87-1.39-4.17-2.5-.54-25.26,13.55-27.11,15.99-.9,1.18-14.36,22.57-15.29,24.33-36.03,10.69-18.65-12.93-20.86-18.77-1.28-3.39-18.72-2.05-22.25-9.73-.33-.73-.2-15.21,0-15.99,2.35-9.35,9.65-14.09,18.77-9.73-5.99-4.55,3.67-11.36,9.04-11.12Z"/>
          <path class="st0" d="M481.41,283.15c-5.58-1.35-7.29,4.37-16.68-4.17-1.11-1.01,2.12-3.72.7-4.17-.68-.21-9.03,2.77-9.73,2.78-12.03.11-20.45-.23-33.37,2.78-1.97.46-11.9,9.29-15.99,3.48-.26-.37,1.29-4.6,1.39-9.04.01-.46-.01-.93,0-1.39,3.33-.19,4.03-12.31,4.17-14.6.52-8.27.75-19.11-1.39-27.11,1.28-8.2,7.05-14.95,6.95-23.64,19.85.14,15.07,29.82,25.72,36.15,6.37,3.78,21.69-11.28,31.28,2.09,1.13,1.57,11.85,33.76,6.95,36.85Z"/>
          <path class="st2" d="M418.84,337.37c2.16,3.9,8.8,8.38,8.34,14.6-.43,2-32.58,12.74-23.64,25.72-14.65,7.55-14.52,10.79-23.64,23.64-17.27-4.29-27.67-12.46-18.08-30.59.93-1.76,14.4-23.15,15.29-24.33,1.85-2.44,24.61-16.53,27.11-15.99,1.38.3-.04,3.31,1.39,4.17.42.25,8.72-2.64,1.39,4.17l11.82-1.39Z"/>
          <path class="st4" d="M464.73,278.98c9.4,8.54,11.11,2.82,16.68,4.17,2.17.53,2.62,2.67,2.78,2.78.32.23,1.27,5.56,5.56,5.56,4.56,10.23-4.69,15.12-13.9,22.25-3.83,2.96-11.09,11.5-18.77,11.12-9.27-.45,2.34-16.71-2.09-22.25,1.75-6.03,3.55-12.13,5.56-18.08.86-2.54.36-8.54,4.17-5.56Z"/>
          <path class="st3" d="M489.75,288.71c.27.37-.27,2.17,0,2.78-4.29,0-5.24-5.34-5.56-5.56,1.27.89,5.03,2.05,5.56,2.78Z"/>
          <path class="st2" d="M475.85,313.74c-.68,4.81-2.28,7.28-2.78,12.51-1.27,13.29,4.64,9.82,6.95,22.25-9.15.06-65.21,23.39-76.47,29.2-8.94-12.99,23.21-23.72,23.64-25.72.46-6.22-6.19-10.7-8.34-14.6-3.35-6.05-6.42-16.1-13.9-18.08,1.01-1.73,3.73-1.91,5.56-2.78l17.38,26.42c4.64-7.21,8.63-1.68,11.12-2.78,10.61-4.67,12.81-26.6,15.99-37.54,4.42,5.53-7.19,21.79,2.09,22.25,7.68.38,14.94-8.16,18.77-11.12Z"/>
          <path class="st4" d="M407.72,274.81c-.1,4.44-1.65,8.66-1.39,9.04,4.09,5.81,14.02-3.02,15.99-3.48,12.92-3.01,21.34-2.67,33.37-2.78.71,0,9.06-2.99,9.73-2.78,1.43.45-1.8,3.17-.7,4.17-3.81-2.98-3.31,3.02-4.17,5.56-6.48,5.51-20.65,2.58-24.33,4.17-1.78.77-11.33,20.97-25.72,27.81-1.83.87-4.55,1.05-5.56,2.78-.43-.11-.94.09-1.39,0h-12.51c-15.22-2.72-30.32-5.94-44.49-13.9,4.82.21,24.88,5.62,29.89,6.95,1.71.45-1.76,2.42,0,2.78,1.92.39,2.13-1.68,4.17-1.39.65.09.93,3.57,2.78,4.17,1.04.34,17.23-5.23,21.55-3.48l-47.97-63.26,41.71,45.88,9.04-22.25Z"/>
          <path class="st4" d="M407.72,273.42c.28-11.73,1.02-30.39,2.78-41.71,2.14,8,1.91,18.84,1.39,27.11-.14,2.29-.84,14.41-4.17,14.6Z"/>
          <path class="st4" d="M403.55,319.3c-3.61-.7-8.83.66-12.51,0h12.51Z"/>
          <path class="st4" d="M460.56,284.54c-2.01,5.94-3.81,12.05-5.56,18.08-3.18,10.94-5.38,32.87-15.99,37.54-2.49,1.1-6.48-4.43-11.12,2.78l-17.38-26.42c14.39-6.84,23.94-27.04,25.72-27.81,3.69-1.59,17.85,1.34,24.33-4.17Z"/>
        </g>
        <g>
          <path class="st0" d="M689.97,216.41c1.17.62,3.07,3.58,4.17,0,.46-.02.94.05,1.39,0,1.04-.12,1.54-.18,1.39-1.39.44-.1.96.12,1.39,0,.85-.23,1.56,0,1.39-1.39,3.65-2.16,12.33-1.28,13.9,2.09.66,1.41-.12,16.81,1.39,19.47,5.36,9.42,17.85,2.76,22.25,9.73,7.55,11.99-10.88,17.31-8.34,25.03,2.96,8.99,27.23-5.55,34.76,8.34,3.52,6.5-17.59,30.1-16.68,31.98.46.96,16.54,5.56,16.68,11.82-4.53-1.94-6.5-4.98-7.65-5.56-6.52-3.27-7.78,4.79-13.21-7.65-.41-.93,1.64-5.42,1.39-5.56-9.26-5.47-45.2,4.18-57.01,6.26-1.79-9.24-7-13-13.9-18.08,1.88-2.91,16.59-26.73,13.9-27.81-10.55,7.63-16.08-3.73-18.77-4.17-1.31-.22-22.26,5.92-25.72,6.95-4.44,2.41-20.54,6.92-22.25,2.09-.69-1.95,6.4-6.26,2.09-7.65l-14.6,16.68c4.02-3.72,9.77-12.74,11.82-18.08-8.02,5.23-15.34-.85-22.25,0-4.28.53-13.48,8.13-20.16,5.56-.13-15.23-.08-30.66,0-45.88,18.55,4.98,27.65-19.89,38.24-22.25,14.98-3.34,7.37,9.59,7.65,10.43,3.14,9.47,30.28-13.4,38.24-14.6,26.23-3.94,14.75,16.41,28.5,23.64Z"/>
          <path class="st4" d="M763.66,322.08c5.76,2.47,17.6,1.68,18.08,9.04.41,6.45-16.32,15.36-9.04,21.55,1.98,1.68,19.81-8.44,29.2,2.78,6.77,8.09.61,14.3,3.48,22.94-5.84,8.32-18.06-1.42-23.64,6.26-1.87-18.83-31.04-12.58-45.88-12.51-6.21-9.56,5.66-16.87,1.39-24.33-1.58-2.76-22.58-14.95-20.86-25.03-11.02-2.28-14.38,4.49-25.72.7-1.47-.49-3.45-6.23-10.43-4.87-3.85-7.26,2.62-2.47,2.78-7.65,2.6-.43,3.95-1.35,4.17-1.39,11.81-2.08,47.75-11.73,57.01-6.26.25.15-1.8,4.63-1.39,5.56,5.43,12.44,6.69,4.38,13.21,7.65,1.15.58,3.12,3.62,7.65,5.56Z"/>
          <path class="st0" d="M570.4,216.41c-.05.42-.05.97,0,1.39.05.37,4.12,5.81,4.17,6.26.36,3.39.43,27.62-.7,28.5l-31.28-13.21c3.14,5.73,30.23,13.23,31.28,14.6,1.39,1.8.67,9.55.7,12.51-16.37,2.25-28.47,16.5-44.49,20.86-5-9.96-3.59-4.71-12.51-2.78-5.9-16.68-10.86-43.14,2.78-55.62l1.39-1.39c.14-.06-.45-2.69.7-2.78.5-.04,4.55,2.78,9.73,2.78.44,0,2.65-4.16,8.34-2.78,3.72.9,6.42,9.46,6.95,9.73,4.12,2.14,25.02-4.31,22.94-13.21-.8-3.45-52.99-33.66-60.48-36.85-.98-2.39,7.29-1.55,7.65-1.39.62.27,7.61,8.36,11.12,7.65-.94-4.1-6.26-7.67-8.34-10.43-1.79-2.38-2.15-4.54-5.56-6.26-.77-3.38,4.53.45,4.87.7,6.64,4.79,13.81,17.78,20.86,23.64,7.75,6.44,21.46,11.48,29.89,18.08Z"/>
          <path class="st4" d="M578.74,174.7c.36,5.63,2.51,1.39,2.78,1.39,1.34.01,1.95-2.1,4.17-1.39-1.84,5.61-5.16,3.89-6.95,11.12-1.91-.04-1.33,1.44-1.39,2.78-.34,7.01,2.74,10.39,2.78,11.82.03,1.03-2.78.36-2.78,1.39,0,5.83.03,11.55,0,17.38-.08,15.23-.13,30.66,0,45.88.04,5.02-.94,23.58.7,26.42.08.13,1.39-2.17,2.78-1.39,6.3,3.53.91-.86,2.78-1.39,8.87-2.5,15.46-2.92,24.33-11.12l14.6-16.68c4.32,1.39-2.77,5.7-2.09,7.65,1.71,4.84,17.81.33,22.25-2.09-9.59,2.87-50.49,20.13-59.09,27.81-23.72,21.17,27.44,6.79,34.76,6.95.54.01,2.24,2.77,2.78,2.78,9.03.25,36.22,5.38,41.02-.7,2.71-3.43.38-10.07,1.39-12.51,1.42-3.45,3.03,2.76,4.17,1.39,6.44-7.69,11.42-21.04,19.47-28.5,2.69,1.08-12.03,24.9-13.9,27.81-3.52,5.46-6.27,11.19-9.73,16.68-.26.41-4.6-.81-5.56.7-2.27,3.55-4.3,10.54-6.95,14.6-.97,1.48-1.34,1.31-1.39,1.39-4.51,1.6-8.55-3.92-11.82-4.17-2.34-.18-29.08.89-30.59,1.39-5.63,1.87-8.6,8.71-13.21,12.51-6.71-1.73-27.56-2.98-34.76-2.78,16.11-1.08,4.92-28,6.95-34.06,1.23-3.69,8.44-.96,9.73-2.78.18-.25-2.77-5.19-2.78-5.56-.23-7.99,1.46-16.04,1.39-22.94-.03-2.96.69-10.72-.7-12.51-1.05-1.37-28.14-8.87-31.28-14.6l31.28,13.21c1.12-.88,1.05-25.11.7-28.5-.05-.44-4.12-5.88-4.17-6.26,3.15.39,2.54-.39,2.78-2.78,1.13-11.17.77-22.23,1.39-33.37.22-3.87,1.16-8.34,1.39-12.51.35-6.41-2.38-19.3,2.78-22.94v28.5Z"/>
          <path class="st2" d="M719.17,373.52v1.39c-18.86.45-1.81,9.47-1.39,10.43,3.64,8.24,8.09,25.18,6.95,35.46-.9.03-1.79,1.11-4.17,1.39-9.57,1.13-25.88,11.42-30.59,11.12-9.2-.58-13.96-24.49-18.08-31.28-2.28-3.76-10.61-13.6-13.9-17.38,4.29-17.62,33.48-1.83,44.49-11.12,5.54.06,11.14.05,16.68,0Z"/>
          <path class="st4" d="M781.74,384.65c3.04,30.54-29.84,13.4-31.98,22.94-1.47,6.54,31.93,20.42,10.43,29.89-8.02,3.53-11.41-3.56-18.08-5.56-.36-.11-2.19,3.94-6.95,2.78-1.61-.39-10.48-11.72-14.6-12.51,2.38-.28,3.27-1.36,4.17-1.39,3.93-.12,10.54,4.96,13.21,4.17l3.48-3.48c-2.33-13.13-4.25-47.01-22.25-46.58v-1.39c5.13-.04,11.14-1.36,16.68-1.39,14.84-.07,44.01-6.31,45.88,12.51Z"/>
          <path class="st4" d="M530.08,287.32c.36.71.57,6.94,1.39,9.04.64,1.63,2.76-1.95,3.48-.7,3.61,6.3-1.05,6.56-.7,9.04.85,5.99,6.21,8.57.7,13.21-8.63-1.19-25.59-16.5-33.37-15.29-5.42.84-19.3,22.57-28.5,23.64.5-5.23,2.11-7.7,2.78-12.51,9.21-7.13,18.46-12.01,13.9-22.25-.27-.61.27-2.41,0-2.78,9.96-5,15.22-1.45,27.81-4.17,8.92-1.93,7.51-7.18,12.51,2.78Z"/>
          <path class="st4" d="M574.57,266.46c.07,6.91-1.62,14.95-1.39,22.94.01.37,2.96,5.31,2.78,5.56-1.29,1.82-8.5-.91-9.73,2.78-2.03,6.06,9.16,32.98-6.95,34.06-26.13.73-30.05,18.36-43.1,20.86-9.86,1.89-26.16-4.24-36.15-4.17-2.31-12.43-8.22-8.96-6.95-22.25,9.21-1.07,23.08-22.8,28.5-23.64,7.78-1.21,24.74,14.11,33.37,15.29,5.51-4.64.15-7.22-.7-13.21-.35-2.47,4.3-2.73.7-9.04-.72-1.25-2.84,2.33-3.48.7-.82-2.09-1.03-8.33-1.39-9.04,16.02-4.36,28.12-18.61,44.49-20.86Z"/>
          <path class="st4" d="M687.19,263.68c-8.05,7.46-13.02,20.82-19.47,28.5-1.15,1.37-2.75-4.84-4.17-1.39-1.01,2.45,1.32,9.08-1.39,12.51-4.8,6.08-31.98.94-41.02.7-.54-.02-2.24-2.77-2.78-2.78-7.32-.16-58.48,14.21-34.76-6.95,8.61-7.68,49.5-24.94,59.09-27.81,3.46-1.04,24.41-7.17,25.72-6.95,2.69.44,8.22,11.8,18.77,4.17Z"/>
          <path class="st4" d="M607.94,277.59c-8.88,8.21-15.46,8.62-24.33,11.12-1.87.53,3.52,4.92-2.78,1.39-1.39-.78-2.7,1.53-2.78,1.39-1.64-2.84-.65-21.4-.7-26.42,6.68,2.56,15.88-5.04,20.16-5.56,6.9-.85,14.22,5.23,22.25,0-2.05,5.34-7.8,14.36-11.82,18.08Z"/>
          <path class="st4" d="M687.19,309.57c-.22.04-1.57.96-4.17,1.39-3.01.49-22.8,4.57-19.47-2.78,3.47-5.49,6.21-11.23,9.73-16.68,6.9,5.08,12.11,8.83,13.9,18.08Z"/>
          <path class="st2" d="M691.36,344.33c-3.43,4.42-20.74,18.84-19.47,24.33,6.06,7.5,15.98,4.53,25.03,4.87,1.84.07,3.72-.02,5.56,0-11.02,9.29-40.21-6.49-44.49,11.12-.49-.56-3.64-2.2-4.17-2.78-4.44-4.86-13.25-13.85-18.08-18.08,2.28-10.54,11.14-18.6,15.29-27.81l38.24,5.56,8.34-6.95c-1.89,2.54-4.6,7.59-6.26,9.73Z"/>
          <path class="st2" d="M663.55,308.18c-3.33,7.35,16.46,3.28,19.47,2.78-.16,5.18-6.63.38-2.78,7.65,6.98-1.37,8.96,4.37,10.43,4.87,11.35,3.8,14.7-2.98,25.72-.7-1.72,10.07,19.28,22.27,20.86,25.03,4.27,7.46-7.6,14.77-1.39,24.33-5.54.03-11.55,1.35-16.68,1.39-5.54.05-11.14.06-16.68,0-1.84-.02-3.72.07-5.56,0,5.64-12.23,5.91-21.67-5.56-29.2,1.66-2.14,4.36-7.19,6.26-9.73l-8.34,6.95-38.24-5.56c1.91-4.24,7.58-14.27,0-12.51,2.65-4.06,4.69-11.05,6.95-14.6.96-1.51,5.3-.28,5.56-.7Z"/>
          <path class="st2" d="M649.65,324.86c-2.77,4.25-16.11,31.71-18.77,31.98-1,.1-12.12-11.55-15.99-8.34-6.89-4.69-12.53-11.76-20.86-13.9,4.61-3.81,7.58-10.65,13.21-12.51,1.5-.5,28.25-1.57,30.59-1.39,3.27.26,7.31,5.77,11.82,4.17Z"/>
          <path class="st2" d="M651.04,335.98c-4.15,9.21-13.01,17.27-15.29,27.81-7.4-6.48-12.94-9.91-20.86-15.29,3.87-3.2,14.99,8.44,15.99,8.34,2.66-.27,16-27.73,18.77-31.98.05-.08.42.09,1.39-1.39,7.58-1.75,1.91,8.27,0,12.51Z"/>
          <path class="st2" d="M719.17,374.92c18-.43,19.91,33.45,22.25,46.58l-3.48,3.48c-2.67.79-9.28-4.29-13.21-4.17,1.14-10.28-3.31-27.22-6.95-35.46-.42-.96-17.47-9.98,1.39-10.43Z"/>
          <path class="st2" d="M691.36,344.33c11.47,7.53,11.2,16.97,5.56,29.2-9.05-.33-18.97,2.63-25.03-4.87-1.27-5.49,16.04-19.91,19.47-24.33Z"/>
        </g>
      </g>
      <g>
        <path class="st0" d="M480.02,348.5c9.99-.06,26.29,6.06,36.15,4.17,6.03,15.26,21.86,32.93,23.64,48.66-12.54-.16-25-1.03-37.54-1.39-7.85-.23-16.28-4.39-24.33-1.39l-78.56,57.7c-2.03,19.91-6.81,39.35-9.73,59.09-6.28,42.4-7.43,85.71-15.29,127.92-2.46-10.45,4.12-19.6-.7-29.2-10.97,3.25-22.45,11.93-29.89,21.55-.6.78.6,6.2,0,6.95-2.92,3.67-20.51,21.21-24.33,24.33-2.62,2.14-31.48,21.57-33.37,22.25-.9.32-13.02-.59-16.68,0-1.74.28-4.66,4.17-6.95,4.17-4.11,0-6.07-7.67-11.82-5.56,6.14-4.84,59.39-59.24,61.18-63.26,8.72-19.68,13.56-79.54,18.08-102.89,2.75-14.24,7.32-52.5,11.12-62.57,1.19-3.15,34.92-50.34,38.93-54.92.38-.43,2.89-.78,0-1.39.14-.4-.2-1.11,0-1.39,9.12-12.85,8.99-16.09,23.64-23.64,11.26-5.81,67.32-29.14,76.47-29.2Z"/>
        <path class="st2" d="M699.7,452.78c7.92,16.62,11.34,34.73,19.47,51.44-2.18,1.03-1.71,7.17-1.39,9.04,10.77,62.54,30.54,103.43,18.08,171.02-.86,4.64-3.54,9.82-6.95,13.21-5.78-10.05-15.6-17.96-19.47-29.2-8.86-25.76-11.3-63.96-19.47-93.16-.84-2.99-1.96-5.57-2.78-8.34-6.7-22.51-16.34-43.88-23.64-66.04-3.04-9.25-2.51-24.37-6.95-32.67-3.96-7.41-35.69-29.91-44.49-38.93l87.6,23.64Z"/>
        <path class="st2" d="M785.91,722.52c-4.44,9.08-28.48-6.44-31.98,4.87-.27.87,1.06,17.23,1.39,18.08.59,1.49,9.51,7.74,9.73,8.34,2.03,5.52-3.52,18.7,0,25.72-1.68-.23-7.93.13-9.73,1.39-3.88-22.02-15.73-64.85-26.42-83.42,3.41-3.39,6.1-8.56,6.95-13.21,12.46-67.59-7.3-108.48-18.08-171.02-.32-1.86-.79-8,1.39-9.04,7.12,14.65,42.51,61,44.49,68.82,11.28,44.54-7.03,103.13,22.25,149.47Z"/>
        <path class="st4" d="M653.82,381.87c.53.58,3.68,2.22,4.17,2.78,3.29,3.78,11.63,13.62,13.9,17.38,4.11,6.8,8.88,30.7,18.08,31.28-.81,7.01,6.52,12.72,9.73,19.47l-87.6-23.64c-8.7-8.92-29.76-41.49-34.76-44.49l-13.21-22.25c23.37,6.66,55.8,9.83,77.86,18.08,5.61,2.1,9.59,4.15,12.51,9.73l-.7-8.34Z"/>
        <path class="st2" d="M765.05,779.52c9.76,1.32,22.68,5.03,33.37,6.95,26.05,4.7,50.55,9.14,76.47,11.12.91.07,1.87-.06,2.78,0-3.59,5.72,10.1.59,13.9,4.17,1.08,9.81-3.4,13.74-4.17,23.64-1.28.24-2.65,1.43-2.78,2.78-4.13-.25-8.38.16-12.51,0-9.9-.39-68.68.67-71.61-1.39-1.88-1.33.49-8.4-1.39-9.73-2.11-1.49-35.65-2.03-41.02-5.56-.62-9.44-1.18-21.49-2.78-30.59,1.8-1.26,8.06-1.62,9.73-1.39Z"/>
        <path class="st4" d="M785.91,722.52c4.47,7.07,43.09,40.57,51.44,46.58,2.61,1.88,3.11,2.77,6.95,2.09-2.5,18.07,5.01,16.4,18.08,20.86.41.14.97-.13,1.39,0l-65.35-5.56c-10.69-1.93-23.61-5.63-33.37-6.95-3.52-7.03,2.03-20.21,0-25.72-.22-.6-9.14-6.85-9.73-8.34-.33-.84-1.66-17.21-1.39-18.08,3.5-11.31,27.54,4.21,31.98-4.87Z"/>
        <path class="st0" d="M374.35,643.26c.34,1.46-.99,4.03,1.39,4.17-6.68,10.97-30.13,30.44-40.32,41.71-5.44-9.54-11.05-1.08-15.99,0-.41.09-4.42-2.39-8.34-1.39-.92.23-15.81,5.2-16.68,5.56-2.85,1.19-13.69,9.35-15.99,12.51-11.33-3.68-25.71-4.87-34.76-12.51,2.34-.89,4.88-3.93,6.95-5.56,5.75-2.11,7.71,5.57,11.82,5.56,2.29,0,5.21-3.89,6.95-4.17,3.67-.59,15.78.32,16.68,0,1.89-.67,30.75-20.11,33.37-22.25,3.83-3.12,21.42-20.67,24.33-24.33.6-.76-.6-6.17,0-6.95,7.44-9.62,18.93-18.3,29.89-21.55,4.81,9.6-1.77,18.75.7,29.2Z"/>
        <path class="st0" d="M402.16,741.98c5.56,18.71,14.09,36.62,20.86,54.92,3.06,8.27,5.51,25.1,8.34,31.28-.46-.05-.93.06-1.39,0-9.36-1.13-49.46-4.55-54.92-6.95-2.92-1.28-1.93-8.09-3.48-11.12,9.71-17.51,14.46-37.36,22.25-55.62,1.79-4.2,3.76-8.35,5.56-12.51.88-.12,2.19.23,2.78,0Z"/>
        <path class="st2" d="M659.38,780.91c.81,3.89,21.23,44.96,23.64,45.88l-1.39,2.78c-13.91.14-28.08-1.48-41.71-1.39v-1.39c2.16-.16,2.79-.2,4.17-2.09.35-2.79-18.94-43.25-20.86-52.14-3.53-16.37,8.63-26.5,9.73-41.71l26.42,50.05Z"/>
        <path class="st2" d="M759.49,817.06c-.06-2.4-1.23-3.08-1.39-5.56,5.37,3.53,38.91,4.07,41.02,5.56,1.89,1.34-.49,8.4,1.39,9.73,2.93,2.06,61.7,1,71.61,1.39-28.11,2.34-56.63,1.66-84.81,1.39.61-4.17-3.72-2.71-6.26-2.78-12.99-.37-26.05,1.09-38.93-1.39-8.75-18.03-20.38-34.59-29.89-52.14-8.49-15.66-17.61-46.65-29.2-58.4-6.63-6.72-6.33.32-9.04-.7-5.21-1.96-16.08-19.79-24.33-20.86-7.07-7.12-14.89-14-22.25-20.86,5.43,3.08,15.24-.22,22.94,2.78,30.8,11.99,52.29,55.99,66.04,84.12,10.75,21.98,7.41,21.41,23.64,43.1,1.71,2.29,2.45,10.66,2.78,11.12,2.83,4,9.93,3.13,10.43,3.48.62.42.92,8.16,6.26,7.65-.04-2.55.06-5.11,0-7.65Z"/>
        <path class="st2" d="M787.3,829.58c-35.38-.34-70.33-.34-105.67,0l1.39-2.78c1.58.61,28.32.47,29.2-.7,1.26-23.42-6.09-36.46-13.9-56.31-15.19-38.6-19.82-47.41-48.66-76.47,8.26,1.07,19.12,18.9,24.33,20.86,2.71,1.02,2.41-6.02,9.04.7,11.59,11.74,20.71,42.73,29.2,58.4,9.51,17.55,21.14,34.11,29.89,52.14,12.88,2.48,25.95,1.02,38.93,1.39,2.54.07,6.86-1.39,6.26,2.78Z"/>
        <path class="st2" d="M573.18,822.63c3.65,8.11,6.73,2.65,12.51,2.78,2.85.07,5.44.06,8.34,0,13.89-.28,34.79,2.2,45.88,1.39v1.39c-24,.16-47.79,4-72.3,4.17-10.62.08-21.64-1.44-31.98-1.39,2.06-15.34-4.57-26.72-9.73-40.32-.54-12.39,9.7-6.47,13.21-8.34,1.56-.83-.13-5.29,1.39-5.56.88-.16.17,4.56,2.78,5.56,2.92,1.12,5.83-1.79,6.95-1.39,1.39.5,11.46,24.77,11.82,27.11,1.18,7.75-5.82,13.01.7,17.38l10.43-2.78Z"/>
        <path class="st0" d="M559.27,331.81c7.2-.2,28.05,1.05,34.76,2.78,8.33,2.14,13.97,9.22,20.86,13.9,7.92,5.39,13.46,8.82,20.86,15.29,4.83,4.22,13.63,13.21,18.08,18.08l.7,8.34c-2.92-5.58-6.9-7.64-12.51-9.73-22.06-8.25-54.49-11.42-77.86-18.08l13.21,22.25c-1.21-.72-3.56-3.28-4.17-2.09l25.03,64.65c-1.51.3-1.59-3.44-5.56.7-7.16,7.44-13.54,33.03-20.86,42.41-22.6-.67-43.71,43.94-58.4,59.09-3.37,3.47-2.67-.73-5.56,2.09-17.43,16.97-38.45,30.35-54.23,48.66-1.67-8.65-12.2-6.42-18.77-8.34-4.42-1.29-2.09-3.99-2.78-4.17-3.8-.97-8.71,1.6-9.73,1.39-2.87-.59-17.32-3.03-17.38-6.95,14.39-16.66,51.99-32.51,63.96-49.36,10.97-15.45,14.5-44.25,22.25-58.4,13.49-24.63,53.47-30.47,48.66-73-1.78-15.74-17.61-33.4-23.64-48.66,13.05-2.5,16.97-20.12,43.1-20.86Z"/>
        <path class="st4" d="M539.81,401.33c4.8,42.53-35.18,48.36-48.66,73-7.75,14.15-11.27,42.94-22.25,58.4-11.96,16.85-49.57,32.7-63.96,49.36-13.9,16.1-18.48,47.75-29.2,65.35-2.38-.14-1.05-2.72-1.39-4.17,7.86-42.21,9.01-85.52,15.29-127.92,19.99,6.23,28.11-15.36,41.02-26.42,7.16-6.13,17.03-8.67,24.33-15.99,11.58-11.61,8.01-19.28,12.51-27.81,5.36-10.16,26.98-17.03,34.76-37.54.93-2.44.71-5.17,0-7.65,12.54.36,25,1.23,37.54,1.39Z"/>
        <path class="st4" d="M502.27,399.94c.71,2.48.93,5.2,0,7.65-7.78,20.51-29.4,27.38-34.76,37.54-4.5,8.53-.94,16.2-12.51,27.81-7.3,7.32-17.18,9.86-24.33,15.99-12.9,11.06-21.02,32.64-41.02,26.42,2.93-19.75,7.7-39.18,9.73-59.09l78.56-57.7c8.05-3,16.49,1.17,24.33,1.39Z"/>
        <path class="st7" d="M687.19,566.79c.83,2.77,1.94,5.35,2.78,8.34l-48.66,47.97,68.13,45.19c3.87,11.24,13.69,19.15,19.47,29.2,10.68,18.57,22.54,61.41,26.42,83.42,1.6,9.1,2.16,21.15,2.78,30.59.16,2.48,1.33,3.16,1.39,5.56-8.47-4.03-18.83-26.97-22.25-36.85-3.12-9.02-9.96-52.12-13.9-55.62-2.1-1.86-4.61,2.52-6.95,0-1.25-1.34.04-12.56-2.78-18.08-.45-.89-15.09-11.39-15.99-11.82-1.38-.66-3.35,3.18-8.34,1.39-4.25-1.53-9-9.19-12.51-12.51-1.54-1.46-6.69-1.15-6.95-1.39-1.68-1.5-1.77-8.69-2.09-9.04-1.43-1.58-4.26.19-5.56-1.39-.58-.7.9-4.44-.7-6.26-2.99-3.39-9.44.64-11.12,0-13.46-5.08-12.32-14.91-34.76-13.9-3.18.14,1.53,7.27-11.82-1.39-5.84-3.79-43.25-40.3-44.49-45.19-1.67-6.59-2.3-50.52-1.39-58.4,1.86-16.06,12.15-38.31,15.29-54.92,4.01.96,58.07,37.56,66.04,43.1,14.58,10.13,30.64,22.08,43.1,34.76l4.87-2.78Z"/>
        <path class="st4" d="M598.21,447.22c.85-.17,1.88,0,2.78,0,10.85,5.98,23.31,8.23,34.76,12.51,6.47,2.42,13.33,7.54,20.86,8.34,4.44,8.3,3.91,23.43,6.95,32.67,7.29,22.17,16.94,43.53,23.64,66.04l-4.87,2.78c-12.47-12.68-28.53-24.63-43.1-34.76-7.97-5.54-62.04-42.14-66.04-43.1-.1-.02.43-1.34-1.39-1.39,7.32-9.37,13.7-34.97,20.86-42.41,3.98-4.13,4.06-.4,5.56-.7Z"/>
        <path class="st4" d="M709.44,668.29l-68.13-45.19,48.66-47.97c8.16,29.2,10.61,67.4,19.47,93.16Z"/>
        <path class="st0" d="M577.35,384.65c5,3,26.06,35.58,34.76,44.49,8.8,9.02,40.53,31.52,44.49,38.93-7.53-.8-14.38-5.92-20.86-8.34-9.25-6.08-23.85-12.61-34.76-12.51-.9,0-1.93-.17-2.78,0l-25.03-64.65c.61-1.2,2.97,1.36,4.17,2.09Z"/>
        <path class="st4" d="M335.42,689.15c-4.82,5.33-12.47,11.32-14.6,18.08,21.39-.38,42.68,2.03,63.96,2.78,1.03.04.41,2.92,1.39,2.78,1.36-.2-.02-3.52,1.39-4.17,11.6-5.38,24.62-14.01,34.76-20.86,2.6,1.24-1.48,12.3-2.09,13.9-3.53,9.32-11.46,18-15.29,26.42-11.21,2.91-21.53-2.95-32.67,0-.38.1-.87,5.39-4.17,5.56-.98.05-11.75-10-15.99,2.78-14.4-6.54-28.3-13.73-43.1-19.47l9.73-10.43c-8.03-4.78-20.32-2.16-26.42,4.87-4.57-1.63-9.39-4.1-13.9-5.56,2.3-3.16,13.13-11.32,15.99-12.51.88-.37,15.76-5.33,16.68-5.56,3.92-1,7.93,1.48,8.34,1.39,4.94-1.08,10.55-9.54,15.99,0Z"/>
        <path class="st4" d="M404.94,728.08c-2.02,4.44-3.62,9.42-5.56,13.9-1.8,4.16-3.77,8.32-5.56,12.51-10.77-4.31-21.42-9.12-31.98-13.9-3.2-1.45-6.57-2.74-9.73-4.17,4.24-12.78,15.01-2.73,15.99-2.78,3.3-.17,3.79-5.46,4.17-5.56,11.15-2.95,21.46,2.91,32.67,0Z"/>
        <path class="st4" d="M309,716.95c-5.62-2.18-11.13-3.58-16.68-5.56,6.1-7.03,18.39-9.64,26.42-4.87l-9.73,10.43Z"/>
        <path class="st4" d="M863.77,792.04c4.41,1.4,6.86,3.77,11.12,5.56-25.92-1.98-50.42-6.43-76.47-11.12l65.35,5.56Z"/>
        <g>
          <path class="st0" d="M217.23,693.32c19.11,22.04,38.45,56.65,60.48,75.08,1.56,1.3,1.99-1.47,2.09-1.39,5.33,4.46,47.88,35.26,47.27,38.24-7.94-.3-20.93-1.34-28.5-.7-.6.05-2.19,2.73-2.78,2.78-6.38.51-18.54-2.63-22.94,2.78-41.56-1.59-84.35-11.63-125.14-12.51-1-11.62-6.73-23.13-8.34-34.76,2.4-1.56,5.67-3.56,5.56-6.95.55.33,10.63,1.87,12.51,2.78,10.6,5.14,19.6,10.12,29.2,15.29,10.52,5.67,27.19,23.22,36.15,7.65-10.45-11.1-22.38-20.2-34.06-29.89-5.61-4.65-3.98-5.57-11.82-11.12-1.68-1.19-7.85-6.72-8.34-6.95,18.81-5.37,31.43-32.62,48.66-40.32Z"/>
          <path class="st0" d="M243.65,693.32c9.05,7.65,23.43,8.84,34.76,12.51,4.52,1.47,9.33,3.93,13.9,5.56,5.55,1.98,11.06,3.38,16.68,5.56,14.8,5.74,28.71,12.93,43.1,19.47,3.16,1.44,6.53,2.72,9.73,4.17-7.6,8.55-7.36,29.22-1.39,38.24,1.33,2.01,7.94,2.87,8.34,5.56.04.25-2.79,3.92-2.78,4.17.26,6.05,3.49,15.06-5.56,18.08.95,1.96,7.69-.94,11.12,2.09-12.64,2.4-26.12,1.56-38.93,1.39-19.86-.26-40.05.76-59.79,0,4.4-5.41,16.56-2.27,22.94-2.78.59-.05,2.19-2.73,2.78-2.78,7.57-.64,20.57.4,28.5.7.6-2.98-41.94-33.78-47.27-38.24l-59.79-75.08c10.66-2.39,13.98,5.09,23.64,1.39Z"/>
          <path class="st2" d="M272.85,810.11c19.74.76,39.93-.26,59.79,0,2.79,8.99,15.74,11.23,4.17,18.08-69.66-1.5-139.94-1.57-209.95-2.78,3.34-6.96,15.36,1.1,18.77-5.56l-2.09-1.39c5.97-4.64,4.82-13.29,4.17-20.86,40.79.88,83.58,10.92,125.14,12.51Z"/>
          <path class="st0" d="M147.71,797.6c-23.79-.52-48.49,3.48-72.3,4.17-2.31-.46-4.57-.96-6.95-1.39.45-3.2,1.48-3.15,2.78-5.56,4.36-.15,8.06-.77,11.12-4.17,10.9-1.53,46.29-20.85,57.01-27.81,1.61,11.63,7.34,23.14,8.34,34.76Z"/>
          <path class="st4" d="M75.41,801.77c21.87,4.33,45.45,13.55,68.13,16.68l2.09,1.39c-3.41,6.66-15.43-1.4-18.77,5.56-11.63-.2-42.37,1.93-51.44-1.39v-1.39c-.46-.93,2.14-1.89,1.39-3.48-3.1-6.59-9.39-11.34-8.34-18.77,2.38.44,4.65.93,6.95,1.39Z"/>
          <path class="st2" d="M371.57,810.11c1.55,3.03.56,9.84,3.48,11.12,5.47,2.4,45.56,5.82,54.92,6.95-2.42,3.23-16.64,2.95-20.16,2.78-24.51-1.16-48.47-2.25-73-2.78,11.56-6.84-1.39-9.08-4.17-18.08,12.81.17,26.29,1.01,38.93-1.39.22.2-.2,1.01,0,1.39Z"/>
          <path class="st3" d="M220.02,691.93l59.79,75.08c-.1-.08-.53,2.69-2.09,1.39-22.03-18.43-41.37-53.04-60.48-75.08.14-.06-.1-.75,2.78-1.39Z"/>
          <path class="st4" d="M176.91,740.59c7.83,5.55,6.21,6.47,11.82,11.12,11.68,9.69,23.62,18.79,34.06,29.89-8.96,15.58-25.63-1.98-36.15-7.65,13.9-2.95-10.58-25.37-15.29-23.64-2.01-4.9-5.28-3.22-6.95-4.17l12.51-5.56Z"/>
          <path class="st2" d="M186.65,773.96c-9.6-5.18-18.6-10.15-29.2-15.29,7.96,2.02,12.69-7.9,13.9-8.34,4.72-1.73,29.2,20.68,15.29,23.64Z"/>
          <path class="st4" d="M393.82,754.5c-7.78,18.26-12.54,38.11-22.25,55.62-.2-.39.22-1.19,0-1.39-3.43-3.03-10.17-.12-11.12-2.09,9.05-3.01,5.82-12.02,5.56-18.08-.01-.25,2.82-3.92,2.78-4.17-.4-2.69-7.01-3.55-8.34-5.56-5.97-9.02-6.21-29.68,1.39-38.24,10.56,4.78,21.21,9.59,31.98,13.9Z"/>
          <path class="st4" d="M147.71,797.6c.65,7.56,1.8,16.22-4.17,20.86-22.68-3.13-46.26-12.36-68.13-16.68,23.81-.69,48.52-4.69,72.3-4.17Z"/>
        </g>
        <path class="st0" d="M404.94,582.09c.06,3.92,14.51,6.36,17.38,6.95,1.02.21,5.93-2.36,9.73-1.39.69.18-1.63,2.88,2.78,4.17,6.57,1.92,17.1-.31,18.77,8.34l-30.59,100.11c-.28.22-.11,2.24-2.78,1.39.61-1.6,4.69-12.66,2.09-13.9-10.14,6.84-23.16,15.48-34.76,20.86-1.41.65-.03,3.98-1.39,4.17-.98.14-.36-2.74-1.39-2.78-21.28-.75-42.57-3.16-63.96-2.78,2.13-6.76,9.78-12.75,14.6-18.08,10.19-11.27,33.64-30.75,40.32-41.71,10.72-17.6,15.3-49.24,29.2-65.35Z"/>
        <path class="st0" d="M573.18,491.71c-3.15,16.61-13.44,38.86-15.29,54.92-.91,7.88-.28,51.81,1.39,58.4,1.24,4.89,38.65,41.4,44.49,45.19v1.39c-3.51-.7-3.2,2.56-2.78,4.87,3.36,18.38,33.15,58.23,31.98,74.39-1.1,15.22-13.26,25.34-9.73,41.71-3.83-.18-3.51-.83-4.17,2.78-2.81-9.14-10.07-1.34-13.21-1.39-8.36-.13-16.23-3.97-22.94-.7-1.38,2.86,15.12,26.57,18.08,31.28l-88.29-115.4c-1.08-.15-.56,2.75-.7,2.78-7.11,1.57-12.89,6.4-18.08,12.51-19.2,4.98-35.24,17.89-53.53,25.03-11.81,4.61-25.41,7.61-38.24,12.51-.59.23-1.9-.12-2.78,0,1.94-4.49,3.54-9.46,5.56-13.9,3.84-8.42,11.76-17.1,15.29-26.42,2.67.85,2.5-1.17,2.78-1.39,12.82-10.12,30.53-19.54,44.49-29.2,3.47-2.4,25.99-15.83,26.42-17.38l-15.29-45.19c.64-3.32-.83-8.98,0-11.82,2.8-9.53,26.61-32.61,29.2-45.19,2.89-2.82,2.19,1.39,5.56-2.09,14.69-15.15,35.8-59.76,58.4-59.09,1.82.05,1.29,1.37,1.39,1.39Z"/>
        <path class="st0" d="M493.92,704.44c-12.25,14.47-8.65,22.92-15.29,38.24-6.54,15.08-16.43,29.14-20.86,45.19-7.11,6.66-16,32.21-25.03,40.32-.46-.05-.93.05-1.39,0-2.83-6.19-5.29-23.01-8.34-31.28-6.76-18.3-15.3-36.21-20.86-54.92,12.83-4.9,26.43-7.91,38.24-12.51,18.29-7.14,34.33-20.04,53.53-25.03Z"/>
        <path class="st4" d="M603.77,651.61c8.24,6.51,15.97,13.71,23.64,20.86,7.36,6.86,15.18,13.73,22.25,20.86,28.84,29.07,33.47,37.87,48.66,76.47-3.32,4.65-22.16,8.37-25.72,6.95-2.75-1.1-2.13-9.68-11.12-5.56-3.31,1.52-2.84,6.12-2.09,9.73l-26.42-50.05c1.17-16.16-28.62-56.01-31.98-74.39-.42-2.31-.73-5.56,2.78-4.87Z"/>
        <path class="st2" d="M698.31,769.79c7.81,19.85,15.17,32.89,13.9,56.31-.88,1.17-27.62,1.3-29.2.7-2.41-.92-22.83-42-23.64-45.88-.75-3.61-1.23-8.21,2.09-9.73,8.99-4.12,8.37,4.46,11.12,5.56,3.56,1.42,22.4-2.3,25.72-6.95Z"/>
        <path class="st4" d="M623.23,772.57c1.92,8.89,21.21,49.35,20.86,52.14-1.38,1.89-2.01,1.93-4.17,2.09-11.1.81-32-1.67-45.88-1.39,1.41-6.51,11.93-3.36,16.68-6.95,4.4-3.32,6.9-35.25,8.34-43.1.66-3.61.34-2.96,4.17-2.78Z"/>
        <path class="st2" d="M759.49,817.06c.06,2.53-.04,5.1,0,7.65-5.34.51-5.64-7.23-6.26-7.65-.5-.34-7.59.52-10.43-3.48-.33-.47-1.07-8.83-2.78-11.12-16.22-21.69-12.89-21.12-23.64-43.1-13.76-28.13-35.24-72.13-66.04-84.12-7.7-3-17.51.3-22.94-2.78-7.67-7.15-15.4-14.35-23.64-20.86v-1.39c13.35,8.66,8.64,1.53,11.82,1.39,22.44-1.01,21.3,8.82,34.76,13.9,1.68.64,8.13-3.39,11.12,0,1.6,1.81.12,5.56.7,6.26,1.31,1.58,4.13-.19,5.56,1.39.31.34.41,7.54,2.09,9.04.26.24,5.41-.07,6.95,1.39,3.51,3.32,8.26,10.99,12.51,12.51,4.99,1.79,6.96-2.05,8.34-1.39.9.43,15.54,10.93,15.99,11.82,2.82,5.52,1.53,16.73,2.78,18.08,2.34,2.52,4.85-1.86,6.95,0,3.95,3.49,10.78,46.6,13.9,55.62,3.42,9.88,13.78,32.81,22.25,36.85Z"/>
        <path class="st2" d="M513.39,761.45c3.5,10.21,8.75,19.3,12.51,29.2,5.17,13.6,11.79,24.98,9.73,40.32-33.96.16-66.64,2.05-101.5-1.39l41.71-51.44c11.26-8.33,22.04-17.44,34.76-23.64,1.03,3.32,2.08,4.91,2.78,6.95Z"/>
        <path class="st2" d="M600.99,804.55c3.03,4.84,5.49,9.92,9.73,13.9-4.75,3.59-15.28.44-16.68,6.95-2.9.06-5.49.07-8.34,0,1.51-12.13,2.03-24.99-5.56-35.46-.86-1.19-11.17-8.03-12.51-9.73-.6-.76.59-6.24,0-6.95-3.5-4.17-7.31-4.68-9.73-6.95-.51-.47.84-3.66-.7-4.87-4.09-3.2-10.08-2.45-13.9-4.17-2.65-1.2,1.37-9.88-4.87-1.39-11.29-9.18-15.64-3.4-25.03,5.56-.7-2.04-1.75-3.63-2.78-6.95-7.64-24.71-11.26-38.13,1.39-62.57.14-.03-.39-2.93.7-2.78l88.29,115.4Z"/>
        <path class="st2" d="M538.42,755.89c.39.31-.42,4.5,0,4.87,2.59,2.27,7.36,1.71,8.34,2.78,7.17,7.85,17.69,29.98,22.25,40.32.97,2.2,5.47,3.83,5.56,4.17.19.74-3.91,9-1.39,14.6l-10.43,2.78c-6.52-4.37.48-9.63-.7-17.38-.36-2.34-10.43-26.61-11.82-27.11-1.13-.4-4.03,2.52-6.95,1.39-2.61-1-1.9-5.72-2.78-5.56-1.52.27.17,4.73-1.39,5.56-3.51,1.87-13.75-4.04-13.21,8.34-3.76-9.9-9.01-18.99-12.51-29.2,9.39-8.96,13.74-14.74,25.03-5.56Z"/>
        <path class="st2" d="M585.69,825.41c-5.78-.13-8.87,5.33-12.51-2.78-2.52-5.6,1.59-13.86,1.39-14.6-.09-.34-4.59-1.97-5.56-4.17-4.56-10.34-15.07-32.47-22.25-40.32-.98-1.07-5.75-.51-8.34-2.78-.42-.37.39-4.55,0-4.87,6.24-8.49,2.22.2,4.87,1.39,3.82,1.72,9.81.97,13.9,4.17,1.54,1.2.19,4.39.7,4.87,2.42,2.27,6.24,2.78,9.73,6.95.59.71-.6,6.2,0,6.95,1.34,1.7,11.65,8.54,12.51,9.73,7.59,10.47,7.07,23.33,5.56,35.46Z"/>
        <path class="st4" d="M475.85,778.13l-41.71,51.44c-1.87-.18-1.29-1.38-1.39-1.39,9.03-8.11,17.92-33.66,25.03-40.32,1.56-1.46,14.39-7.01,18.08-9.73Z"/>
        <path class="st4" d="M478.63,608.5c-4,20.72-6.89,41.92-11.12,62.57-13.96,9.66-31.67,19.08-44.49,29.2l30.59-100.11c15.78-18.31,36.8-31.69,54.23-48.66-2.59,12.58-26.4,35.65-29.2,45.19-.83,2.84.64,8.5,0,11.82Z"/>
        <path class="st0" d="M635.75,459.73c-11.45-4.28-23.91-6.54-34.76-12.51,10.91-.09,25.51,6.43,34.76,12.51Z"/>
        <path class="st0" d="M512,691.93c-12.65,24.44-9.03,37.86-1.39,62.57-12.72,6.19-23.5,15.31-34.76,23.64-3.68,2.73-16.52,8.27-18.08,9.73,4.42-16.05,14.31-30.11,20.86-45.19,6.65-15.32,3.04-23.77,15.29-38.24,5.18-6.12,10.97-10.95,18.08-12.51Z"/>
        <path class="st4" d="M619.06,775.35c-1.44,7.85-3.94,39.78-8.34,43.1-4.25-3.98-6.7-9.07-9.73-13.9s-19.46-28.42-18.08-31.28c6.71-3.28,14.59.57,22.94.7,3.14.05,10.4-7.75,13.21,1.39Z"/>
        <path class="st0" d="M467.51,671.07c4.23-20.64,7.13-41.85,11.12-62.57l15.29,45.19c-.43,1.55-22.95,14.98-26.42,17.38Z"/>
      </g>
    </g>
  </g>
</svg>