<?xml version="1.0" encoding="UTF-8"?>
<svg id="_レイヤー_1" xmlns="http://www.w3.org/2000/svg" version="1.1" viewBox="0 0 1024 1024">
  <!-- Generator: Adobe Illustrator 29.8.2, SVG Export Plug-In . SVG Version: 2.1.1 Build 3)  -->
  <defs>
    <style>
      .st0 {
        fill: none;
        stroke: #f4f5ed;
        stroke-linecap: round;
        stroke-linejoin: round;
        stroke-width: 25px;
      }
    </style>
  </defs>
  <path class="st0" d="M568.89,379.4c11.26,7.1,19.78,16.9,26.97,27.86,11.05,16.84,24.82,30.73,41.71,41.85,12.07,7.94,18.24,20.23,20.49,34.27,2.78,17.31,6.75,34.43,15,49.83,13.27,24.78,19.87,51.36,24.34,78.7,6,36.64,17.62,71.22,36.73,103.23,2.23,3.75,4.98,1.74,7.49,2.37"/>
  <path class="st0" d="M214.4,689.67c4.55.48,8.46,2.51,12.31,4.86,7.82,4.78,14.92,4.97,20.25-1.75,13.29-16.72,29.51-29.99,45.87-43.43,19.22-15.8,25.21-37.97,25.54-62.03.21-14.52,2.85-28.72,9.18-41.66,9.54-19.52,12.98-40.18,14.66-61.48,1.08-13.78,3.18-27.07,11.03-39.51,7.97-12.65,14.56-26.42,22.82-38.83,8.06-12.12,19.25-21.71,33.09-28.31,21.43-10.23,43.14-19.27,66.41-24.37,9.33-2.05,18.46-3.06,27.88-.05,9.52,3.04,15.8-4.06,21.9-9.13,7.44-6.17,15.21-11.07,24.75-11.95,10.95-1,21.93-1.68,32.78,2.22,17.38,6.27,35.03,12.91,48.76,25.02,15.76,13.9,36.75,24.46,41.03,47.97,2.25,12.37,8.35,20.75,16.72,30.06,8.89,9.87,14.88,23.31,18.89,36.97,4.66,15.88,6.39,32.91,16.96,46.75,7.36,9.62,14.37,19.52,21.38,29.41,12.6,17.72,19.39,36.88,18.97,58.99-.46,25.28,1.19,50.44,6.94,75.37,6.48,28.08,19.58,51.82,42.99,68.46,17.36,12.32,32.5,27.22,49.76,39.55,2.89,2.06,6.02,3.8,8.95,5.79,6.12,4.16,12.2,4.71,17.98-.14,2.85-2.39,5.83-2.46,9.07-2.37,1.36.03,2.77.21,4.09-.02,21.24-3.7,42.57.22,63.87-.6,21.26-.82,42.56-.17,63.85-.17s42.57-.09,63.85.09c3.8.03,7.61.95,11.46.74"/>
  <path class="st0" d="M534.91,393.32c1.34,15.3,2.78,30.56-4.47,45.05-4.11,8.2-10.5,14.28-18.12,18.7-18.58,10.76-26.98,28.41-32.54,47.64-8.06,27.91-25.92,47.11-50.91,60.53-9.75,5.22-20.02,9.56-27.07,18.8-5.98,7.84-7.36,17.41-10.5,26.28-10.31,29.15-27.81,53.47-50.15,74.34-9.04,8.44-17.39,17.55-26.67,25.75-2.77,2.46-4.9,4.04-8.39,3.85"/>
  <path class="st0" d="M575.44,488.28c-8.95,23.79-18.1,47.57-16.31,73.68.96,13.9.14,27.93,2.41,41.75,1.13,6.93,3.75,12.58,9.66,17.38,12.5,10.12,24.42,21.14,30.37,36.68,9.32,24.39,19.06,48.61,28.46,72.94,3.11,8.06,2.23,17.51-2.35,25.18-7.08,11.82-4.47,23.22.33,34.41,3.33,7.75,7.05,15.09,4.74,23.8"/>
  <path class="st0" d="M499.3,561.97c.17,5.96-3.4,10.33-6.6,14.71-11.4,15.66-16.4,33.27-18.24,52.4-1,10.45-2.82,20.9-5.91,31.25-3.83,12.86-10.74,23.01-22.6,27.41-26.49,9.81-38.19,31.5-48.21,55.15-.28.65-1.07,1.1-1.6,1.65"/>
  <path class="st0" d="M60.49,817.8c8.37,1.32,16.93.74,24.68,5.96,8.3,5.59,18.51,2.75,27.72,3.18,49.64,2.37,99.33.89,148.98.91,12.55,0,25.09-1,37.66.14,2.82.26,5.59.22,8.2,1.67,7.49,4.14,14.54,2.22,22.19-.53,6.63-2.37,13.9-2.78,21.24-.45,6.05,1.92,12.51,1.98,18.79-.58,13.7-5.6,27.22-4.31,40.05,2.51,8.83,4.69,17.98,6.63,27.89,6.51,21.02-.27,42.06.57,63.03-.98,9.47-.7,16.77,7.1,26.21,5.83"/>
  <path class="st0" d="M884.9,803.46c.81,4.37,4.16,7.48,5.72,11.46,3.15,8.01-.43,14.2-9.01,15.5-1.87.29-3.82.03-5.72.03-51.3,0-102.61-.52-153.91.14-55.39.7-110.79.45-166.18.77-10.38.07-20.66,1.53-27.84,10.55"/>
  <path class="st0" d="M492.75,395.37c-21.59,15.07-44.7,27.64-67.13,41.34-22.07,13.47-31.66,33.74-32.83,58.95-.52,10.95-2.85,21.76-3.18,32.76"/>
  <path class="st0" d="M76.87,818.21c-.31-1.74.91-3.13.95-4.92.03-3.54,3.42-7.42.55-10.52-3.51-3.76-8.37-5.72-13.77-5.88-37.66-1.05-75.33-1.27-112.97-.52-12.05.24-24.03-.91-36.02-.29"/>
  <path class="st0" d="M509.94,691.32c.84,7.53-2.99,14.16-3.99,21.3-1.34,9.49-2.47,18.89-.33,28.69,2.49,11.33-1.99,20.25-11.89,27.19-6.74,4.73-14.01,9.78-16.53,18.61"/>
  <path class="st0" d="M358.48,256.6c11.64,13.7,23.34,27.34,36.82,39.31,2.3,2.05,4.52,4.23,6.55,6.55,5.43,6.26,7.06,13.34,4.12,21.26"/>
  <path class="st0" d="M692.5,760.08c4.37,13.58,11.52,26.02,15.06,40.03,2.42,9.59,3.85,18.97,3.76,28.74"/>
  <path class="st0" d="M763.72,412.14c1.62,4.64,2.97,9.32,6.46,13.18,2.58,2.87,1.39,6.84-.14,9.62-1.12,2.01-4,2.23-7.15,2.1-8.28-.36-15.95-5.84-24.56-2.85-1.03.36-1.96,1.41-3.25.88"/>
  <path class="st0" d="M214.81,679.85c1.17,4.81-1.12,8.28-3.49,12.39-8.2,14.16-16.38,28.15-28.75,39.27-4.62,4.16-9.4,7.03-15.64,7.27"/>
  <path class="st0" d="M627.83,209.94c5.43.53,10.07-1.75,14.75-4.07,9.44-4.69,11.34-3.76,15.69,5.65,1.43,3.08,2.99,8.22,7.97,6.43,4.4-1.58,11.17.67,12.51-7.15.6-3.57,3.95-6.53,3.11-10.67"/>
  <path class="st0" d="M842.32,770.72c7.87-9.2,19.73-11.89,29.6-17.81,6.26-3.75,12.51-.65,15.25,7.22,2.8,8.1,8.49,13.01,15.81,15.25,8.78,2.68,13.58,7.44,13.84,16.62"/>
  <path class="st0" d="M769.47,351.56c6.34,4.69,14.18,3.88,21.3,5.69,10,2.54,15.3,9.68,12.13,17.17-1.27,3.01-2.41,6.15-4,9.02-3.4.55-6.51-1.05-9.76-1.65-8.15-1.48-11.69.72-11.27,9.04.43,8.83-8.77,18.3-17.38,20.47"/>
  <path class="st0" d="M515.68,189.05c15.12,5.74,30.22,11.46,42.62,22.46,3.57,3.16,7.37,6.26,12.24,7.41,5.91,1.41,7.01,5.74,5.62,10.62-2.2,7.8-.24,16.16-3.82,23.86-1.55,3.35,2.2,6.77,2.34,10.55.34,9.28,2.18,19.32.74,27.69-2.25,13.15.82,25.83-.81,38.62"/>
  <path class="st0" d="M359.31,253.32c7.51-7.84,13.51-16.79,18.79-26.23,1-1.79,2.03-2.87,4.12-3.3,10.3-2.06,19.44-6.1,27.16-13.73,5.62-5.55,11.95-3.02,14.66,4.76.88,2.53.6,6.39,3.28,7.22,8.8,2.7,10.24,10.47,13.03,17.36,2.47,6.14,6.43,8.66,13.13,6.6,8.01-2.46,13.39,0,17.39,8.03,4.83,9.71,13.05,17.65,15.33,28.75.91,4.42,4.37,1.68,6.57,2.46"/>
  <path class="st0" d="M712.15,309.81c-16.48,1.36-32.54,6.03-49.12,6.5-3.2.09-4.74,2.18-6.55,4.14-5.59,6.14-8.04,14.01-11.33,21.35-2.34,5.21-5.02,9.95-9.14,13.85"/>
  <path class="st0" d="M690.87,267.24c-10.23,10.5-17.87,23.03-26.86,34.49-2.9,3.71-3.57,8.85-2.6,13.8"/>
  <path class="st0" d="M356.03,257.42c-4.92,4.92-10.85,9.18-14.51,14.88-5.69,8.87-14.27,12.62-23.19,16.16-7.84,3.11-10.33,8.54-8.28,16.47,2.87,11.17,9.5,21.11,10.67,32.72.74,7.34,5.6,10.24,11.58,11.26,4.04.69,7.55,5.84,12.24,1.84"/>
  <path class="st0" d="M579.53,132.97c-1.63,15.28-.36,30.87-4.92,45.84"/>
  <path class="st0" d="M729.35,245.96c-9.88,5.17-10.57,16.93-1.68,23.8,5.93,4.59,12.98,6.34,19.71,8.89,5.36,2.03,6.65-4.54,10.62-5.67"/>
  <path class="st0" d="M744.08,453.08c-4.59-4.59-7.79-9.57-9.28-16.31-1.99-8.92-17.34-14.52-26.71-10.67-6.12,2.53-11.74,6.05-17.2,9.78"/>
  <path class="st0" d="M333.92,380.21c0-2.46-.58-5.09.12-7.34,1.6-5.19,10.16-5.5,16.28-.88,1.99,1.51,3.44,3.64,3.97,5.77,2.82,11.31,10.76,18.3,19.77,24.53"/>
  <path class="st0" d="M369.95,315.95c4.31-1.74,8.46.15,12.22,1.41,7.56,2.53,14.61,6.12,22.96,6.74,3.73.28,5.91,5.76,9.02,8.65,9.42,8.77,17.36,18.56,21.3,31.09"/>
  <path class="st0" d="M514.03,280.34c-.07-3.02.89-6.53-.93-8.92-4.59-6-3.57-12.08-2.54-18.96,2.37-15.78,15.33-21.93,28.87-13.08,9.68,6.32,19.66,12.07,31.09,14.76"/>
  <path class="st0" d="M142.35,737.98c1.72,11.5-5.64,19.73-10.79,28.57-2.6,4.45-7.92,5.64-12.94,5.76-6,.15-10.17,2.47-14.08,7.3-6.93,8.54-12.36,18.85-23.58,23.03-.48.17-1.08.02-1.63.02"/>
  <path class="st0" d="M635.61,234.5c.74,8.54-5.35,14.44-8.85,21.14-2.87,5.5-7.12,10.31-8.71,16.52-.69,2.7-2.46,3.83-4.9,5-11.81,5.69-22.05,14.92-36.06,15.47"/>
  <path class="st0" d="M621.28,220.57c-.38-4.61,5.43-5.6,5.72-9.81.36-3.94-3.18-5.74-5.12-8.01-3.04-3.56-7.67-4.31-11.21-.12-5.16,6.1-10.72,11.7-17.26,16.31-4.9,3.45-10.16,6-16.36,5.74"/>
  <path class="st0" d="M545.96,159.18c10.5,4.83,16.86,15.47,27.79,19.75,1.25.5,2.92,1.8,2.51,3.99-2.23,11.89,3.47,24.53-3.28,36.02"/>
  <path class="st0" d="M355.22,254.97c-7.3-9.44-17.87-10.69-28.65-11.46"/>
  <path class="st0" d="M612.27,162.45c-8.34,2.73-14.71,8.47-21.31,13.89-4,3.28-8.34,6.1-13.89,5.76"/>
  <path class="st0" d="M682.69,242.68c3.09.38,5.57-1.48,8.13-2.58,3.68-1.58,6.89-1.94,9.85.98,1.65,1.63,3.82,2.9,5.72,2.3,7.01-2.25,12.72,1.62,18.87,3.4"/>
  <path class="st0" d="M679.4,214.03c8.92,5.1,19.44,1.51,28.79,5.4,2.96,1.24,6.75-3.44,10.52-4.52,3.33-.95,6.08-3.59,9.81-3.33"/>
  <path class="st0" d="M759.63,352.38c4.86.19,9.38.58,10.05-6.53.29-3.06,4.09-4.97,6.31-7.39,6.2-6.75,5.59-11.4-2.49-14.64-7.06-2.84-15.54-.65-22.07-5.83-.53.83-1.8,1.13-1.68,2.46.02.24-.62.83-.76.77-1.12-.46-1.12-1.05-.02-1.6"/>
  <path class="st0" d="M378.13,223.86c-8.49-5.71-18.17-5.74-27.83-5.72"/>
  <path class="st0" d="M812.02,387.58c-3.73.65-7.12-.95-10.64-1.63"/>
</svg>